<svg  fill="none" xmlns="http://www.w3.org/2000/svg">
<mask id="mask0_120_613" style="mask-type:alpha" maskUnits="userSpaceOnUse" x="0" y="0">
<rect fill="#FEE6B7"/>
</mask>
<g mask="url(#mask0_120_613)">
<rect fill="#FEE6B7"/>
<circle cx="43" cy="30" r="50" fill="url(#paint0_linear_120_613)"/>
<circle cx="286" cy="26" r="50" fill="url(#paint1_linear_120_613)"/>
<circle cx="166" cy="87" r="50" fill="url(#paint2_linear_120_613)"/>
<path d="M131.359 25.9961V34.8242H133.039V37.1289H131.359V40H128.547V37.1289H122.443V34.7168C122.984 34.1113 123.544 33.4505 124.123 32.7344C124.702 32.0117 125.262 31.2695 125.803 30.5078C126.343 29.7461 126.844 28.9811 127.307 28.2129C127.775 27.4382 128.173 26.6992 128.498 25.9961H131.359ZM125.207 34.8242H128.547V29.9316C128.319 30.3548 128.072 30.7845 127.805 31.2207C127.538 31.6504 127.258 32.0768 126.965 32.5C126.672 32.9167 126.376 33.3236 126.076 33.7207C125.777 34.1113 125.487 34.4792 125.207 34.8242ZM139.24 40.2441C135.907 40.2441 134.24 37.9036 134.24 33.2227C134.24 30.7943 134.689 28.9453 135.588 27.6758C136.493 26.3997 137.801 25.7617 139.514 25.7617C142.769 25.7617 144.396 28.1413 144.396 32.9004C144.396 35.2702 143.951 37.0866 143.059 38.3496C142.173 39.6126 140.9 40.2441 139.24 40.2441ZM139.377 28.1152C138.042 28.1152 137.375 29.7917 137.375 33.1445C137.375 36.3021 138.029 37.8809 139.338 37.8809C140.614 37.8809 141.252 36.2533 141.252 32.998C141.252 29.7428 140.627 28.1152 139.377 28.1152ZM149.27 33.0957C148.273 33.0957 147.469 32.7799 146.857 32.1484C146.252 31.5169 145.949 30.6673 145.949 29.5996C145.949 28.4342 146.271 27.5098 146.916 26.8262C147.567 26.1426 148.433 25.8008 149.514 25.8008C150.549 25.8008 151.356 26.11 151.936 26.7285C152.521 27.347 152.814 28.2161 152.814 29.3359C152.814 30.4883 152.492 31.403 151.848 32.0801C151.203 32.7572 150.344 33.0957 149.27 33.0957ZM149.455 27.5195C148.505 27.5195 148.029 28.1803 148.029 29.502C148.029 30.752 148.482 31.377 149.387 31.377C150.311 31.377 150.773 30.7259 150.773 29.4238C150.773 28.1543 150.334 27.5195 149.455 27.5195ZM159.494 25.9961L150.373 40H147.99L157.092 25.9961H159.494ZM157.99 40.1953C156.994 40.1953 156.19 39.8796 155.578 39.248C154.973 38.6165 154.67 37.7669 154.67 36.6992C154.67 35.5339 154.992 34.6094 155.637 33.9258C156.288 33.2422 157.154 32.9004 158.234 32.9004C159.276 32.9004 160.087 33.2064 160.666 33.8184C161.245 34.4303 161.535 35.2962 161.535 36.416C161.535 37.5684 161.213 38.4863 160.568 39.1699C159.924 39.8535 159.064 40.1953 157.99 40.1953ZM158.146 34.6191C157.202 34.6191 156.73 35.2799 156.73 36.6016C156.73 37.8516 157.189 38.4766 158.107 38.4766C159.032 38.4766 159.494 37.8255 159.494 36.5234C159.494 35.918 159.37 35.4492 159.123 35.1172C158.876 34.7852 158.55 34.6191 158.146 34.6191ZM175.461 40.2441C173.456 40.2441 171.822 39.5931 170.559 38.291C169.296 36.9824 168.664 35.2799 168.664 33.1836C168.664 30.9701 169.305 29.1797 170.588 27.8125C171.87 26.4453 173.57 25.7617 175.686 25.7617C177.684 25.7617 179.299 26.416 180.529 27.7246C181.766 29.0332 182.385 30.7585 182.385 32.9004C182.385 35.1009 181.743 36.875 180.461 38.2227C179.185 39.5703 177.518 40.2441 175.461 40.2441ZM175.598 28.4766C174.491 28.4766 173.612 28.8932 172.961 29.7266C172.31 30.5534 171.984 31.6504 171.984 33.0176C171.984 34.4043 172.31 35.5013 172.961 36.3086C173.612 37.1159 174.465 37.5195 175.52 37.5195C176.607 37.5195 177.469 37.1289 178.107 36.3477C178.745 35.5599 179.064 34.4694 179.064 33.0762C179.064 31.6243 178.755 30.4948 178.137 29.6875C177.518 28.8802 176.672 28.4766 175.598 28.4766ZM192.814 28.5645H187.873V32.002H192.414V34.5605H187.873V40H184.719V25.9961H192.814V28.5645ZM203.225 28.5645H198.283V32.002H202.824V34.5605H198.283V40H195.129V25.9961H203.225V28.5645Z" fill="#F43F5E"/>
<path d="M67.9688 69.4688C67.9688 72.6146 66.5495 74.1875 63.7109 74.1875C60.9922 74.1875 59.6328 72.6745 59.6328 69.6484V62.7969H60.9453V69.5625C60.9453 71.8594 61.9141 73.0078 63.8516 73.0078C65.7214 73.0078 66.6562 71.8984 66.6562 69.6797V62.7969H67.9688V69.4688ZM70.1172 73.7109V72.3359C70.8151 72.8516 71.5833 73.1094 72.4219 73.1094C73.5469 73.1094 74.1094 72.7344 74.1094 71.9844C74.1094 71.7708 74.0599 71.5911 73.9609 71.4453C73.8672 71.2943 73.737 71.1615 73.5703 71.0469C73.4089 70.9323 73.2161 70.8307 72.9922 70.7422C72.7734 70.6484 72.5365 70.5521 72.2812 70.4531C71.9271 70.3125 71.6146 70.1719 71.3438 70.0312C71.0781 69.8854 70.8542 69.724 70.6719 69.5469C70.4948 69.3646 70.3594 69.1589 70.2656 68.9297C70.1771 68.7005 70.1328 68.4323 70.1328 68.125C70.1328 67.75 70.2188 67.4193 70.3906 67.1328C70.5625 66.8411 70.7917 66.599 71.0781 66.4062C71.3646 66.2083 71.6901 66.0599 72.0547 65.9609C72.4245 65.862 72.8047 65.8125 73.1953 65.8125C73.888 65.8125 74.5078 65.9323 75.0547 66.1719V67.4688C74.4661 67.0833 73.7891 66.8906 73.0234 66.8906C72.7839 66.8906 72.5677 66.9193 72.375 66.9766C72.1823 67.0286 72.0156 67.1042 71.875 67.2031C71.7396 67.3021 71.6328 67.4219 71.5547 67.5625C71.4818 67.6979 71.4453 67.849 71.4453 68.0156C71.4453 68.224 71.4818 68.3984 71.5547 68.5391C71.6328 68.6797 71.7448 68.8047 71.8906 68.9141C72.0365 69.0234 72.2135 69.1224 72.4219 69.2109C72.6302 69.2995 72.8672 69.3958 73.1328 69.5C73.487 69.6354 73.8047 69.776 74.0859 69.9219C74.3672 70.0625 74.6068 70.224 74.8047 70.4062C75.0026 70.5833 75.1536 70.7891 75.2578 71.0234C75.3672 71.2578 75.4219 71.5365 75.4219 71.8594C75.4219 72.2552 75.3333 72.599 75.1562 72.8906C74.9844 73.1823 74.7526 73.4245 74.4609 73.6172C74.1693 73.8099 73.8333 73.9531 73.4531 74.0469C73.0729 74.1406 72.6745 74.1875 72.2578 74.1875C71.4349 74.1875 70.7214 74.0286 70.1172 73.7109ZM83.8281 70.3203H78.1797C78.2005 71.2109 78.4401 71.8984 78.8984 72.3828C79.3568 72.8672 79.987 73.1094 80.7891 73.1094C81.6901 73.1094 82.5182 72.8125 83.2734 72.2188V73.4219C82.5703 73.9323 81.6406 74.1875 80.4844 74.1875C79.3542 74.1875 78.4661 73.8255 77.8203 73.1016C77.1745 72.3724 76.8516 71.349 76.8516 70.0312C76.8516 68.7865 77.2031 67.7734 77.9062 66.9922C78.6146 66.2057 79.4922 65.8125 80.5391 65.8125C81.5859 65.8125 82.3958 66.151 82.9688 66.8281C83.5417 67.5052 83.8281 68.4453 83.8281 69.6484V70.3203ZM82.5156 69.2344C82.5104 68.4948 82.3307 67.9193 81.9766 67.5078C81.6276 67.0964 81.1406 66.8906 80.5156 66.8906C79.9115 66.8906 79.3984 67.1068 78.9766 67.5391C78.5547 67.9714 78.2943 68.5365 78.1953 69.2344H82.5156ZM95.6172 73.6328C95.0026 74.0026 94.2734 74.1875 93.4297 74.1875C92.2891 74.1875 91.3672 73.8177 90.6641 73.0781C89.9661 72.3333 89.6172 71.3698 89.6172 70.1875C89.6172 68.8698 89.9948 67.8125 90.75 67.0156C91.5052 66.2135 92.513 65.8125 93.7734 65.8125C94.4766 65.8125 95.0964 65.9427 95.6328 66.2031V67.5156C95.0391 67.099 94.4036 66.8906 93.7266 66.8906C92.9089 66.8906 92.237 67.1849 91.7109 67.7734C91.1901 68.3568 90.9297 69.125 90.9297 70.0781C90.9297 71.0156 91.1745 71.7552 91.6641 72.2969C92.1589 72.8385 92.8203 73.1094 93.6484 73.1094C94.3464 73.1094 95.0026 72.8776 95.6172 72.4141V73.6328ZM100.898 74.1875C99.7161 74.1875 98.7708 73.8151 98.0625 73.0703C97.3594 72.3203 97.0078 71.3281 97.0078 70.0938C97.0078 68.75 97.375 67.7005 98.1094 66.9453C98.8438 66.1901 99.8359 65.8125 101.086 65.8125C102.279 65.8125 103.208 66.1797 103.875 66.9141C104.547 67.6484 104.883 68.6667 104.883 69.9688C104.883 71.2448 104.521 72.2682 103.797 73.0391C103.078 73.8047 102.112 74.1875 100.898 74.1875ZM100.992 66.8906C100.169 66.8906 99.5182 67.1719 99.0391 67.7344C98.5599 68.2917 98.3203 69.0625 98.3203 70.0469C98.3203 70.9948 98.5625 71.7422 99.0469 72.2891C99.5312 72.8359 100.18 73.1094 100.992 73.1094C101.82 73.1094 102.456 72.8411 102.898 72.3047C103.346 71.7682 103.57 71.0052 103.57 70.0156C103.57 69.0156 103.346 68.2448 102.898 67.7031C102.456 67.1615 101.82 66.8906 100.992 66.8906ZM113.758 74H112.477V72.6406H112.445C111.852 73.6719 110.935 74.1875 109.695 74.1875C108.69 74.1875 107.885 73.8307 107.281 73.1172C106.682 72.3984 106.383 71.4219 106.383 70.1875C106.383 68.8646 106.716 67.8047 107.383 67.0078C108.049 66.2109 108.938 65.8125 110.047 65.8125C111.146 65.8125 111.945 66.2448 112.445 67.1094H112.477V62.1562H113.758V74ZM112.477 70.3828V69.2031C112.477 68.5573 112.263 68.0104 111.836 67.5625C111.409 67.1146 110.867 66.8906 110.211 66.8906C109.43 66.8906 108.815 67.1771 108.367 67.75C107.919 68.3229 107.695 69.1146 107.695 70.125C107.695 71.0469 107.909 71.776 108.336 72.3125C108.768 72.8438 109.346 73.1094 110.07 73.1094C110.784 73.1094 111.362 72.8516 111.805 72.3359C112.253 71.8203 112.477 71.1693 112.477 70.3828ZM122.781 70.3203H117.133C117.154 71.2109 117.393 71.8984 117.852 72.3828C118.31 72.8672 118.94 73.1094 119.742 73.1094C120.643 73.1094 121.471 72.8125 122.227 72.2188V73.4219C121.523 73.9323 120.594 74.1875 119.438 74.1875C118.307 74.1875 117.419 73.8255 116.773 73.1016C116.128 72.3724 115.805 71.349 115.805 70.0312C115.805 68.7865 116.156 67.7734 116.859 66.9922C117.568 66.2057 118.445 65.8125 119.492 65.8125C120.539 65.8125 121.349 66.151 121.922 66.8281C122.495 67.5052 122.781 68.4453 122.781 69.6484V70.3203ZM121.469 69.2344C121.464 68.4948 121.284 67.9193 120.93 67.5078C120.581 67.0964 120.094 66.8906 119.469 66.8906C118.865 66.8906 118.352 67.1068 117.93 67.5391C117.508 67.9714 117.247 68.5365 117.148 69.2344H121.469ZM138.406 74H136.367L135.359 71.1484H130.953L129.984 74H127.953L132.148 62.7969H134.242L138.406 74ZM134.867 69.6328L133.312 65.1641C133.266 65.0182 133.216 64.7839 133.164 64.4609H133.133C133.086 64.7578 133.034 64.9922 132.977 65.1641L131.438 69.6328H134.867ZM148.609 74H146.438L144.648 71C144.487 70.724 144.328 70.4896 144.172 70.2969C144.021 70.099 143.865 69.9375 143.703 69.8125C143.547 69.6875 143.375 69.5964 143.188 69.5391C143 69.4818 142.789 69.4531 142.555 69.4531H141.805V74H139.953V62.7969H143.641C144.167 62.7969 144.651 62.8594 145.094 62.9844C145.536 63.1094 145.922 63.2995 146.25 63.5547C146.578 63.8047 146.833 64.1198 147.016 64.5C147.203 64.875 147.297 65.3151 147.297 65.8203C147.297 66.2161 147.237 66.5807 147.117 66.9141C147.003 67.2422 146.836 67.5365 146.617 67.7969C146.404 68.0521 146.143 68.2708 145.836 68.4531C145.534 68.6354 145.193 68.776 144.812 68.875V68.9062C145.016 69.0208 145.193 69.1484 145.344 69.2891C145.495 69.4245 145.638 69.5651 145.773 69.7109C145.909 69.8568 146.042 70.0234 146.172 70.2109C146.307 70.3932 146.456 70.6068 146.617 70.8516L148.609 74ZM141.805 64.3047V67.9453H143.352C143.638 67.9453 143.901 67.901 144.141 67.8125C144.385 67.724 144.596 67.5964 144.773 67.4297C144.951 67.263 145.089 67.0599 145.188 66.8203C145.286 66.5807 145.336 66.3125 145.336 66.0156C145.336 65.4792 145.167 65.0599 144.828 64.7578C144.49 64.4557 144.003 64.3047 143.367 64.3047H141.805ZM153.344 62.5469V74H151.531V64.7656C151.203 65 150.849 65.2005 150.469 65.3672C150.094 65.5286 149.664 65.6719 149.18 65.7969V64.25C149.482 64.151 149.773 64.0469 150.055 63.9375C150.336 63.8281 150.612 63.7057 150.883 63.5703C151.159 63.4349 151.435 63.2839 151.711 63.1172C151.992 62.9505 152.281 62.7604 152.578 62.5469H153.344ZM162.211 62.7969V70.0312H163.875V71.5391H162.211V74H160.453V71.5391H155.383V70.0156C155.841 69.5 156.31 68.9427 156.789 68.3438C157.273 67.7396 157.737 67.125 158.18 66.5C158.628 65.8698 159.042 65.2396 159.422 64.6094C159.802 63.9792 160.122 63.375 160.383 62.7969H162.211ZM160.453 70.0312V65.3281C159.885 66.349 159.323 67.2396 158.766 68C158.214 68.7604 157.695 69.4375 157.211 70.0312H160.453ZM165.406 73.7422V72C166.141 72.4948 166.885 72.7422 167.641 72.7422C168.401 72.7422 169.013 72.5495 169.477 72.1641C169.94 71.7734 170.172 71.2552 170.172 70.6094C170.172 69.974 169.935 69.4792 169.461 69.125C168.992 68.7708 168.318 68.5938 167.438 68.5938C167.135 68.5938 166.523 68.625 165.602 68.6875L166 62.7969H171.516V64.3438H167.508L167.32 67.1484C167.68 67.1276 168.005 67.1172 168.297 67.1172C169.484 67.1172 170.401 67.4219 171.047 68.0312C171.698 68.6406 172.023 69.474 172.023 70.5312C172.023 71.6406 171.651 72.5312 170.906 73.2031C170.167 73.8698 169.148 74.2031 167.852 74.2031C166.758 74.2031 165.943 74.0495 165.406 73.7422ZM182.273 62.7969L178.602 69.9297V74H176.742V69.9688L173.164 62.7969H175.281L177.484 67.6016C177.51 67.6589 177.589 67.875 177.719 68.25H177.742C177.789 68.0833 177.875 67.8672 178 67.6016L180.305 62.7969H182.273ZM193.734 74H192.453V72.75H192.422C191.865 73.7083 191.044 74.1875 189.961 74.1875C189.164 74.1875 188.539 73.9766 188.086 73.5547C187.638 73.1328 187.414 72.5729 187.414 71.875C187.414 70.3802 188.294 69.5104 190.055 69.2656L192.453 68.9297C192.453 67.5703 191.904 66.8906 190.805 66.8906C189.841 66.8906 188.971 67.2188 188.195 67.875V66.5625C188.982 66.0625 189.888 65.8125 190.914 65.8125C192.794 65.8125 193.734 66.8073 193.734 68.7969V74ZM192.453 69.9531L190.523 70.2188C189.93 70.3021 189.482 70.4505 189.18 70.6641C188.878 70.8724 188.727 71.2448 188.727 71.7812C188.727 72.1719 188.865 72.4922 189.141 72.7422C189.422 72.987 189.794 73.1094 190.258 73.1094C190.893 73.1094 191.417 72.888 191.828 72.4453C192.245 71.9974 192.453 71.4323 192.453 70.75V69.9531ZM199.859 73.9219C199.557 74.0885 199.159 74.1719 198.664 74.1719C197.263 74.1719 196.562 73.3906 196.562 71.8281V67.0938H195.188V66H196.562V64.0469L197.844 63.6328V66H199.859V67.0938H197.844V71.6016C197.844 72.138 197.935 72.5208 198.117 72.75C198.299 72.9792 198.602 73.0938 199.023 73.0938C199.346 73.0938 199.625 73.0052 199.859 72.8281V73.9219ZM211.414 73.6328C210.799 74.0026 210.07 74.1875 209.227 74.1875C208.086 74.1875 207.164 73.8177 206.461 73.0781C205.763 72.3333 205.414 71.3698 205.414 70.1875C205.414 68.8698 205.792 67.8125 206.547 67.0156C207.302 66.2135 208.31 65.8125 209.57 65.8125C210.273 65.8125 210.893 65.9427 211.43 66.2031V67.5156C210.836 67.099 210.201 66.8906 209.523 66.8906C208.706 66.8906 208.034 67.1849 207.508 67.7734C206.987 68.3568 206.727 69.125 206.727 70.0781C206.727 71.0156 206.971 71.7552 207.461 72.2969C207.956 72.8385 208.617 73.1094 209.445 73.1094C210.143 73.1094 210.799 72.8776 211.414 72.4141V73.6328ZM219.992 74H218.711V69.3906C218.711 67.724 218.091 66.8906 216.852 66.8906C216.227 66.8906 215.701 67.1328 215.273 67.6172C214.846 68.0964 214.633 68.7135 214.633 69.4688V74H213.352V62.1562H214.633V67.3281H214.664C215.279 66.3177 216.154 65.8125 217.289 65.8125C219.091 65.8125 219.992 66.8984 219.992 69.0703V74ZM228.844 70.3203H223.195C223.216 71.2109 223.456 71.8984 223.914 72.3828C224.372 72.8672 225.003 73.1094 225.805 73.1094C226.706 73.1094 227.534 72.8125 228.289 72.2188V73.4219C227.586 73.9323 226.656 74.1875 225.5 74.1875C224.37 74.1875 223.482 73.8255 222.836 73.1016C222.19 72.3724 221.867 71.349 221.867 70.0312C221.867 68.7865 222.219 67.7734 222.922 66.9922C223.63 66.2057 224.508 65.8125 225.555 65.8125C226.602 65.8125 227.411 66.151 227.984 66.8281C228.557 67.5052 228.844 68.4453 228.844 69.6484V70.3203ZM227.531 69.2344C227.526 68.4948 227.346 67.9193 226.992 67.5078C226.643 67.0964 226.156 66.8906 225.531 66.8906C224.927 66.8906 224.414 67.1068 223.992 67.5391C223.57 67.9714 223.31 68.5365 223.211 69.2344H227.531ZM236.242 73.6328C235.628 74.0026 234.898 74.1875 234.055 74.1875C232.914 74.1875 231.992 73.8177 231.289 73.0781C230.591 72.3333 230.242 71.3698 230.242 70.1875C230.242 68.8698 230.62 67.8125 231.375 67.0156C232.13 66.2135 233.138 65.8125 234.398 65.8125C235.102 65.8125 235.721 65.9427 236.258 66.2031V67.5156C235.664 67.099 235.029 66.8906 234.352 66.8906C233.534 66.8906 232.862 67.1849 232.336 67.7734C231.815 68.3568 231.555 69.125 231.555 70.0781C231.555 71.0156 231.799 71.7552 232.289 72.2969C232.784 72.8385 233.445 73.1094 234.273 73.1094C234.971 73.1094 235.628 72.8776 236.242 72.4141V73.6328ZM244.82 74H243.023L239.492 70.1562H239.461V74H238.18V62.1562H239.461V69.6641H239.492L242.852 66H244.531L240.82 69.8594L244.82 74ZM249.477 74.1875C248.294 74.1875 247.349 73.8151 246.641 73.0703C245.938 72.3203 245.586 71.3281 245.586 70.0938C245.586 68.75 245.953 67.7005 246.688 66.9453C247.422 66.1901 248.414 65.8125 249.664 65.8125C250.857 65.8125 251.786 66.1797 252.453 66.9141C253.125 67.6484 253.461 68.6667 253.461 69.9688C253.461 71.2448 253.099 72.2682 252.375 73.0391C251.656 73.8047 250.69 74.1875 249.477 74.1875ZM249.57 66.8906C248.747 66.8906 248.096 67.1719 247.617 67.7344C247.138 68.2917 246.898 69.0625 246.898 70.0469C246.898 70.9948 247.141 71.7422 247.625 72.2891C248.109 72.8359 248.758 73.1094 249.57 73.1094C250.398 73.1094 251.034 72.8411 251.477 72.3047C251.924 71.7682 252.148 71.0052 252.148 70.0156C252.148 69.0156 251.924 68.2448 251.477 67.7031C251.034 67.1615 250.398 66.8906 249.57 66.8906ZM261.977 74H260.695V72.7344H260.664C260.133 73.7031 259.31 74.1875 258.195 74.1875C256.289 74.1875 255.336 73.0521 255.336 70.7812V66H256.609V70.5781C256.609 72.2656 257.255 73.1094 258.547 73.1094C259.172 73.1094 259.685 72.8802 260.086 72.4219C260.492 71.9583 260.695 71.3542 260.695 70.6094V66H261.977V74ZM268.281 73.9219C267.979 74.0885 267.581 74.1719 267.086 74.1719C265.685 74.1719 264.984 73.3906 264.984 71.8281V67.0938H263.609V66H264.984V64.0469L266.266 63.6328V66H268.281V67.0938H266.266V71.6016C266.266 72.138 266.357 72.5208 266.539 72.75C266.721 72.9792 267.023 73.0938 267.445 73.0938C267.768 73.0938 268.047 73.0052 268.281 72.8281V73.9219Z" fill="#1F272D"/>
</g>
<defs>
<linearGradient id="paint0_linear_120_613" x1="28.5" y1="-20" x2="57.5" y2="50.5" gradientUnits="userSpaceOnUse">
<stop stop-color="#FEF3DC"/>
<stop offset="1" stop-color="#FEE6B7" stop-opacity="0"/>
</linearGradient>
<linearGradient id="paint1_linear_120_613" x1="271.5" y1="-24" x2="300.5" y2="46.5" gradientUnits="userSpaceOnUse">
<stop stop-color="#FEF3DC"/>
<stop offset="1" stop-color="#FEE6B7" stop-opacity="0"/>
</linearGradient>
<linearGradient id="paint2_linear_120_613" x1="151.5" y1="37" x2="180.5" y2="107.5" gradientUnits="userSpaceOnUse">
<stop stop-color="#FEF3DC"/>
<stop offset="1" stop-color="#FEE6B7" stop-opacity="0"/>
</linearGradient>
</defs>
</svg>
