<?xml version="1.0" standalone="no"?><!DOCTYPE svg PUBLIC "-//W3C//DTD SVG 1.1//EN" "http://www.w3.org/Graphics/SVG/1.1/DTD/svg11.dtd"><svg t="1646269168296" class="icon" viewBox="0 0 1024 1024" version="1.1" xmlns="http://www.w3.org/2000/svg" p-id="2060" xmlns:xlink="http://www.w3.org/1999/xlink" width="200" height="200"><defs><style type="text/css"></style></defs><path d="M944.453293 249.002121c-21.407566-59.953464-62.521962-106.808608-115.740024-131.99115-35.750225-16.962324-75.937506-25.894763-116.120694-25.894763-81.96171 0-158.610414 36.635385-201.095018 94.726431-42.595121-57.515948-118.723985-93.6581-200.189392-93.6581-40.187281 0-80.263022 8.961092-116.040876 25.811876-53.270251 25.180496-94.386694 72.03871-115.768677 131.936915-24.582885 68.694545-20.777209 148.924821 10.183943 214.606753 68.27192 144.869459 386.446469 448.201975 400.025743 460.093816 6.241145 5.535063 14.016225 8.246825 21.900799 8.246825 7.774057 0 15.549138-2.711761 21.896706-8.246825 13.524015-11.9471 332.438415-316.375577 400.655076-461.245036C965.149661 397.8461 968.982966 317.669036 944.453293 249.002121L944.453293 249.002121 944.453293 249.002121zM873.718275 467.281519c-55.18588 106.096387-335.940169 386.850675-347.765495 397.208581-5.584182 4.795213-7.883551 7.891737-14.343683 7.891737-6.843872 0-10.183943-2.629897-13.687744-6.137791-11.114129-11.125385-282.944164-281.465486-345.139691-402.469398-28.824489-56.063877-43.798529-125.388778-26.278503-180.628894 45.00296-141.93871 174.73158-134.950552 209.881125-134.979204 62.550615-0.053212 128.578424 58.746986 175.552272 105.166201 10.840906-15.72924 91.101881-99.959619 175.581947-106.098433 47.795563-3.480264 170.81641 4.550643 209.854519 133.282562C912.26315 329.616136 908.648832 400.146493 873.718275 467.281519L873.718275 467.281519 873.718275 467.281519z" p-id="2061"></path></svg>