<svg width="127" height="78" viewBox="0 0 127 78" fill="none" xmlns="http://www.w3.org/2000/svg">
<mask id="mask0_120_3703" style="mask-type:alpha" maskUnits="userSpaceOnUse" x="0" y="0" width="127" height="78">
<rect width="127" height="78" rx="12" fill="#C4C4C4"/>
</mask>
<g mask="url(#mask0_120_3703)">
<path d="M-5.77648 0.491516L-9.38965 9.12773L0.951499 7.48836L-5.77648 0.491516Z" fill="#F5F5F5"/>
<path d="M10.7092 -31.7581L-3.3894 -3.1412L4.30908 6.95731L29.8898 2.91134L22.3225 -30.4072L10.7092 -31.7581Z" fill="#F5F5F5"/>
<path d="M48.3491 -20.6632L33.4177 0.49122V2.35354L64.8936 -2.63013L48.3491 -20.6632Z" fill="#F5F5F5"/>
<path d="M93.7006 -20.0862L87.3333 -5.52864L105.471 4.01249L108.166 -12.9058L93.7006 -20.0862Z" fill="#F5F5F5"/>
<path d="M111.176 18.9439L106.409 7.33057L89.9233 21.3308L95.6218 29.3112L111.176 18.9439Z" fill="#F5F5F5"/>
<path d="M128.888 -3.21387C128.888 -3.21387 128.475 -1.79745 128.377 -1.31875C128.278 -0.840056 128.095 0.786193 128.095 0.786193L109.406 4.01246L111.111 -11.437L128.888 -3.21387Z" fill="#FEE6B7"/>
<path d="M111.183 6.81261L115.537 17.3898L129.504 8.45198C129.504 8.45198 128.783 6.60933 128.613 5.97325C128.442 5.33718 128.167 3.56665 128.167 3.56665L111.183 6.81261Z" fill="#FEE6B7"/>
<path d="M116.776 21.016L130.895 10.9175C130.895 10.9175 132.206 12.6093 132.731 13.1077C133.255 13.6061 135.242 15.1602 135.242 15.1602L126.921 30.3539L116.776 21.016Z" fill="#FEE6B7"/>
<path d="M114.009 22.3997L48.6245 62.2101L72.2642 92.0729C72.2642 92.0729 98.6056 56.2953 105.576 43.2721C108.232 38.3081 114.009 22.3997 114.009 22.3997Z" fill="#F5F5F5"/>
<path d="M116.776 27.5146L125.898 34.4262L87.8644 111.149L74.4609 93.5943C74.4609 93.5943 96.6711 64.3348 103.078 53.915C106.986 47.587 116.776 27.5146 116.776 27.5146Z" fill="#F5F5F5"/>
<path d="M93.1366 30.9703L85.3922 22.3997L23.8765 32.767L47.2408 60.4134L93.1366 30.9703Z" fill="#F5F5F5"/>
<path d="M43.7851 61.5217L28.9914 72.0268L14.4797 49.7707L26.3685 40.6493L43.7851 61.5217Z" fill="#FEE6B7"/>
<path d="M24.283 38.4921L12.5451 47.9742L-1.69775 36.8396L21.1157 33.7379L24.283 38.4921Z" fill="#FEE6B7"/>
<path d="M13.5091 54.197L-4.11743 93.1813L25.5355 73.6859L13.5091 54.197Z" fill="#FEE6B7"/>
<path d="M32.7291 73.6857L-2.66162 96.0795L-1.88784 97.9287L60.3754 109.214L70.8805 94.9779L58.5066 80.3219L45.4441 89.3057L32.7291 73.6857Z" fill="#FEE6B7"/>
<path d="M45.9948 64.1512L36.0405 71.3382L45.1685 85.0236L56.5064 77.1416L45.9948 64.1512Z" fill="#FEE6B7"/>
<path d="M10.2631 52.0398L-6.2158 37.4297L-14.1897 38.1117L-6.20269 92.6699L10.2631 52.0398Z" fill="#FEE6B7"/>
<path d="M-16.2292 24.1968L100.186 5.56701L84.015 -1.37738L-17.5276 15.2983L-16.2292 24.1968Z" fill="#F5F5F5"/>
<path d="M-15.7964 27.1538L-14.6554 34.9244L86.0544 20.3406L98.9399 9.40271L-15.7964 27.1538Z" fill="#F5F5F5"/>
<path d="M135.026 74.5842L144.147 82.945L124.796 98.4338L135.026 74.5842Z" fill="#F5F5F5"/>
<path d="M127.97 35.4295L142.488 39.4033L129.111 65.8038L116.776 59.1676L127.97 35.4295Z" fill="#F5F5F5"/>
<path d="M116.081 62.0723L127.419 68.02L102.396 120.408L90.6514 113.083L116.081 62.0723Z" fill="#F5F5F5"/>
<path d="M130.499 71.2717L106.154 120.617L109.129 122.085L133.474 72.7398L130.499 71.2717Z" fill="#F5F5F5"/>
<path d="M-34.321 -81.0707L4.11235 178.192" stroke="#B6D9F7" stroke-width="1.3115" stroke-miterlimit="10"/>
</g>
<circle opacity="0.5" cx="68" cy="36" r="16.5" fill="#FFE4E6" stroke="#FECDD3"/>
<path d="M72.7141 39.8808L69.1783 43.4167C68.8657 43.7289 68.4421 43.9042 68.0003 43.9042C67.5586 43.9042 67.1349 43.7289 66.8224 43.4167L63.2858 39.8808C62.3534 38.9485 61.7185 37.7606 61.4613 36.4674C61.2041 35.1742 61.3362 33.8338 61.8408 32.6156C62.3454 31.3975 63.1998 30.3563 64.2962 29.6238C65.3925 28.8912 66.6814 28.5002 67.9999 28.5002C69.3184 28.5002 70.6074 28.8912 71.7037 29.6238C72.8 30.3563 73.6545 31.3975 74.1591 32.6156C74.6637 33.8338 74.7957 35.1742 74.5385 36.4674C74.2813 37.7606 73.6464 38.9485 72.7141 39.8808Z" fill="#F43F5E" stroke="#F43F5E" stroke-width="1.5" stroke-linecap="round" stroke-linejoin="round"/>
<path d="M68 37.6666C69.3807 37.6666 70.5 36.5473 70.5 35.1666C70.5 33.7859 69.3807 32.6666 68 32.6666C66.6193 32.6666 65.5 33.7859 65.5 35.1666C65.5 36.5473 66.6193 37.6666 68 37.6666Z" fill="white" stroke="white" stroke-width="1.5" stroke-linecap="round" stroke-linejoin="round"/>
</svg>
